#!OML:ASF X:\für Bonn\!DataBase\2005_08_10_Bjorn_Final\c3d\bjorn.ASF
:FULLY-SPECIFIED
:DEGREES
63
root 1.06482 19.4597 3.03614 -194.599 -39.8872 -173.597
lowerback 9.86131 -3.44774 -7.88908
upperback 14.5866 -6.75773 -2.15895
thorax 10.9165 -4.8474 1.83915
lowerneck -2.85609 -7.618 0.592055
upperneck 17.3835 -15.0535 14.6398
head 6.91736 -6.90639 3.40833
rclavicle 6.04305e-014 -4.77083e-014
rhumerus -32.221 -6.72794 -87.0494
rradius 27.4378
rwrist 16.8611
rhand -6.51212 11.2132
rfingers 7.12502
rthumb 19.34 -17.8451
lclavicle 6.04305e-014 -4.77083e-014
lhumerus 27.1561 -18.5062 82.0871
lradius 104.363
lwrist 6.53517
lhand -36.4831 -23.3079
lfingers 7.12502
lthumb -9.57597 6.45446
rfemur -51.0233 1.55584 13.763
rtibia 108.162
rfoot -5.75741 10.4603
rtoes -25.2523
lfemur 4.5414 -3.13177 -15.8511
ltibia 18.42
lfoot -3.57679 -18.6864
ltoes 5.47232
64
root 1.09732 19.4738 3.04769 -195.818 -40.4458 -172.755
lowerback 10.8008 -3.6435 -7.86015
upperback 14.8904 -7.20452 -2.03192
thorax 10.8086 -5.12748 2.01903
lowerneck -2.66582 -7.42757 0.349143
upperneck 17.0918 -14.7092 14.8137
head 6.78817 -6.76717 3.54578
rclavicle 1.90833e-014 -7.95139e-015
rhumerus -32.0899 -6.36944 -87.2636
rradius 27.5956
rwrist 16.6192
rhand -6.59261 11.2865
rfingers 7.12502
rthumb 19.2626 -17.7795
lclavicle 1.90833e-014 -7.95139e-015
lhumerus 28.7088 -18.5376 82.5368
lradius 105.154
lwrist 6.21825
lhand -36.5903 -23.0947
lfingers 7.12502
lthumb -9.67937 6.66286
rfemur -52.8854 1.12714 13.7031
rtibia 110.278
rfoot -4.88821 11.5655
rtoes -25.5655
lfemur 5.55268 -4.08276 -15.4141
ltibia 17.5735
lfoot -3.34141 -18.3213
ltoes 4.73674
65
root 1.12824 19.4866 3.05868 -197.039 -40.9713 -171.927
lowerback 11.7389 -3.82156 -7.83217
upperback 15.2127 -7.63411 -1.90528
thorax 10.7306 -5.40514 2.20368
lowerneck -2.5609 -7.23574 0.0398738
upperneck 16.8111 -14.3708 15.0335
head 6.6849 -6.62482 3.70263
rclavicle 1.74931e-014 6.83819e-014
rhumerus -31.9824 -5.95231 -87.4705
rradius 27.8199
rwrist 16.3542
rhand -6.70968 11.3117
rfingers 7.12502
rthumb 19.15 -17.7655
lclavicle 1.74931e-014 6.83819e-014
lhumerus 30.2945 -18.6089 82.9291
lradius 105.779
lwrist 5.89637
lhand -36.7252 -22.9698
lfingers 7.12502
lthumb -9.80949 6.78169
rfemur -54.7451 0.641813 13.5775
rtibia 112.254
rfoot -3.88356 12.6475
rtoes -25.5299
lfemur 6.58092 -4.96268 -15.0019
ltibia 16.7061
lfoot -3.05014 -17.9992
ltoes 4.02145
66
root 1.15707 19.5031 3.07031 -198.267 -41.4734 -171.06
lowerback 12.6774 -4.00615 -7.74681
upperback 15.5124 -8.06488 -1.78143
thorax 10.6242 -5.67619 2.36548
lowerneck -2.44064 -7.04855 -0.304614
upperneck 16.5464 -14.045 15.267
head 6.58695 -6.48999 3.86863
rclavicle 2.94201e-014 3.65764e-014
rhumerus -31.9312 -5.56998 -87.6431
rradius 28.0583
rwrist 16.0251
rhand -6.82139 11.3258
rfingers 7.12502
rthumb 19.0426 -17.762
lclavicle 2.94201e-014 3.65764e-014
lhumerus 31.8485 -18.7165 83.2683
lradius 106.266
lwrist 5.68525
lhand -36.8164 -22.9555
lfingers 7.12502
lthumb -9.89748 6.79189
rfemur -56.543 0.162222 13.4555
rtibia 114.068
rfoot -2.85253 13.6426
rtoes -25.4749
lfemur 7.59652 -5.87505 -14.5967
ltibia 15.8204
lfoot -2.77958 -17.6469
ltoes 3.26474
67
root 1.18224 19.5204 3.08099 -199.545 -41.9066 -170.147
lowerback 13.6232 -4.18595 -7.57599
upperback 15.8238 -8.48677 -1.67281
thorax 10.5168 -5.93714 2.47301
lowerneck -2.38387 -6.86117 -0.679014
upperneck 16.3015 -13.7351 15.5453
head 6.51179 -6.3578 4.04893
rclavicle -2.3059e-014 3.65764e-014
rhumerus -31.9485 -5.14686 -87.8168
rradius 28.4194
rwrist 15.6708
rhand -6.90133 11.2778
rfingers 7.12502
rthumb 18.9657 -17.8176
lclavicle -2.3059e-014 3.65764e-014
lhumerus 33.3114 -18.8339 83.5155
lradius 106.77
lwrist 5.51734
lhand -36.9249 -22.9914
lfingers 7.12502
lthumb -10.0022 6.75098
rfemur -58.2633 -0.367012 13.3875
rtibia 115.788
rfoot -1.96063 14.5371
rtoes -25.7114
lfemur 8.65872 -6.7927 -14.1904
ltibia 14.9036
lfoot -2.55248 -17.2356
ltoes 2.39645
68
root 1.20685 19.5334 3.08932 -200.823 -42.3778 -169.248
lowerback 14.5854 -4.37525 -7.42742
upperback 16.1327 -8.92217 -1.58165
thorax 10.4076 -6.20822 2.58362
lowerneck -2.40267 -6.66364 -1.02096
upperneck 16.1438 -13.4357 15.8037
head 6.47408 -6.223 4.21288
rclavicle -2.38542e-015 -3.33958e-014
rhumerus -32.0139 -4.76328 -87.984
rradius 28.834
rwrist 15.3476
rhand -7.01466 11.1746
rfingers 7.12502
rthumb 18.8567 -17.9314
lclavicle -2.38542e-015 -3.33958e-014
lhumerus 34.6862 -18.9736 83.6579
lradius 107.313
lwrist 5.41315
lhand -37.0804 -22.9889
lfingers 7.12502
lthumb -10.1522 6.74614
rfemur -59.9371 -1.13298 13.2594
rtibia 117.461
rfoot -1.21588 15.4306
rtoes -26.2128
lfemur 9.76077 -7.80698 -13.8526
ltibia 13.9306
lfoot -2.27654 -16.7872
ltoes 1.60896
69
root 1.23071 19.5452 3.09522 -202.138 -42.8049 -168.301
lowerback 15.5455 -4.55813 -7.24125
upperback 16.4439 -9.34541 -1.48944
thorax 10.302 -6.47231 2.68248
lowerneck -2.48243 -6.4712 -1.33524
upperneck 16.0468 -13.1645 16.0591
head 6.46623 -6.09556 4.36643
rclavicle -6.83819e-014 -5.88403e-014
rhumerus -32.099 -4.47622 -88.1006
rradius 29.2668
rwrist 15.1085
rhand -7.04085 11.099
rfingers 7.12502
rthumb 18.8315 -18.0095
lclavicle -6.83819e-014 -5.88403e-014
lhumerus 36.0165 -19.1271 83.7075
lradius 107.83
lwrist 5.38781
lhand -37.3061 -22.935
lfingers 7.12502
lthumb -10.3699 6.78927
rfemur -61.5927 -1.99956 13.16
rtibia 119.038
rfoot -0.509005 16.2975
rtoes -26.5223
lfemur 10.8927 -8.73556 -13.4703
ltibia 12.9005
lfoot -1.94469 -16.4076
ltoes 0.909724
